<?xml version="1.0" encoding="UTF-8"?>
<!-- Generator: Adobe Illustrator 23.0.3, SVG Export Plug-In . SVG Version: 6.00 Build 0)  -->
<svg version="1.1" id="b0e44a92-142d-44a0-bc6c-1b7ecc88cadc" xmlns="http://www.w3.org/2000/svg" xmlns:xlink="http://www.w3.org/1999/xlink" x="0px" y="0px" viewBox="0 0 816.6 193.9" style="enable-background:new 0 0 816.6 193.9;" xml:space="preserve">
<style type="text/css">
	.st0{fill:#FFFFFF;}
	.st1{opacity:0.2;}
	.st2{fill:#009BDB;}
	.st3{fill:#050800;}
	.st4{fill:#6797CD;}
</style>
<title>mindden_blanco</title>
<ellipse class="st0" cx="79.7" cy="104.3" rx="62.4" ry="59"/>
<path class="st0" d="M289.2,119.2V75.9c0-16.8-7.5-24-19.8-24c-11.9,0-20.5,7.1-20.5,24v43.3h-10.1V75.7C238.8,59,230,52,218.6,52  c-12.6,0-20.1,8.7-20.1,23.6v43.6h-10.1V44.5h10.1v8.6c5.7-7.5,11.6-10.4,21-10.4c11.2,0,18.6,4.4,24.5,14.3  c6.3-10,14.3-14.5,26-14.5c17.1,0,29.4,10.5,29.4,32.2v44.4L289.2,119.2z"/>
<path class="st0" d="M316.5,36.3V19.1h10.1v17.2H316.5z M316.5,119.2V44.5h10.1v74.7L316.5,119.2z"/>
<path class="st0" d="M399.8,119.2V80c0-20.4-9.3-28-23.1-28c-13.5,0-22.8,7.8-22.8,26.1v41.1h-10.1V44.5h10.1v9.7  c6.3-7.6,14.2-11.5,24-11.5c18.7,0,32,11.1,32,37.3v39.2L399.8,119.2z"/>
<path class="st0" d="M493.4,119.2v-13.5c-7.5,10.8-16,15.3-28.4,15.3c-23.1,0-40.7-16.9-40.7-39.1s17.2-39.2,39.8-39.2  c11.4-0.2,22.2,4.9,29.4,13.7V18.3h10.1v100.9H493.4z M463.8,52c-16.1,0-29.2,13.1-29.2,29.2c0,0.1,0,0.2,0,0.3  c-0.3,16.4,12.8,29.9,29.2,30.2c0.3,0,0.7,0,1,0c16,0,29.1-13.7,29.1-30C493.7,65.2,480.2,51.9,463.8,52z"/>
<path class="st0" d="M624.8,119.2v-13.5c-7.5,10.8-16,15.3-28.4,15.3c-23.1,0-40.7-16.9-40.7-39.1s17.2-39.2,39.8-39.2  c11.4-0.2,22.2,4.9,29.4,13.7V18.3h10.1v100.9H624.8z M595.2,52c-16.1,0-29.2,13.1-29.2,29.2c0,0.1,0,0.2,0,0.3  c-0.3,16.4,12.8,29.9,29.2,30.2c0.3,0,0.7,0,1,0c16,0,29.1-13.7,29.1-30C625.1,65.2,611.6,51.9,595.2,52z"/>
<path class="st0" d="M659.4,85.2c0.8,14.8,13.8,26.5,29.1,26.5c11.3,0,21.6-6.7,26.1-17.1h10.5c-4.8,14.2-19.4,26.4-36.3,26.4  c-21.6,0.2-39.3-17.1-39.5-38.7c0-0.3,0-0.5,0-0.8c-0.2-21.2,16.8-38.6,38-38.8c0.2,0,0.5,0,0.7,0c22.1,0,38.9,16,38.9,42.5H659.4z   M687.9,52c-14.2,0-25.5,9.7-28.3,24h57.2C713.5,61.2,702.4,52,687.9,52z"/>
<path class="st0" d="M796.9,119.2V80c0-20.4-9.3-28-23.1-28c-13.5,0-22.8,7.8-22.8,26.1v41.1h-10.1V44.5H751v9.7  c6.3-7.6,14.2-11.5,24-11.5c18.7,0,32,11.1,32,37.3v39.2L796.9,119.2z"/>
<g class="st1">
	<path class="st2" d="M82.5,170.5C45.2,170.5,15,140.3,15,103c0-37.3,30.2-67.4,67.5-67.4c37.2,0,67.4,30.2,67.4,67.4   C149.9,140.2,119.7,170.4,82.5,170.5z M82.5,56.8c-25.5,0-46.2,20.7-46.2,46.2s20.7,46.2,46.2,46.2c25.5,0,46.2-20.7,46.2-46.2   c0,0,0,0,0,0C128.7,77.5,108,56.8,82.5,56.8z"/>
</g>
<path class="st0" d="M260.3,181.9c-4.6,0-7.8-3-7.8-7.7h3.2c-0.2,2.4,1.5,4.5,3.9,4.7c0.2,0,0.4,0,0.7,0c2.2,0,4-1.7,4.1-3.9  c0-0.1,0-0.2,0-0.3c0-2.4-1.2-3.2-4.7-4.6s-3.5-1.4-4.5-2.4c-1.2-1.1-1.9-2.7-1.8-4.3c-0.1-3.7,2.8-6.7,6.4-6.8c0.1,0,0.3,0,0.4,0  c3.9,0,6.8,2.6,6.8,6.5h-3.3c0.2-1.8-1.2-3.4-3-3.5c-0.2,0-0.4,0-0.6,0c-1.9,0-3.5,1.5-3.5,3.4c0,0,0,0,0,0.1c0,1.4,0.9,2.7,2.2,3.2  c0.7,0.4,0.9,0.5,4.6,2c2.6,0.9,4.3,3.4,4.2,6.2c0.2,3.9-2.8,7.3-6.7,7.5C260.7,181.9,260.5,181.9,260.3,181.9z"/>
<path class="st0" d="M292.6,181.9c-7.5,0-13-5.4-13-12.8c-0.1-6.9,5.4-12.5,12.3-12.5c0.1,0,0.3,0,0.4,0c7.3,0,12.6,5.4,12.6,12.7  S299.6,181.9,292.6,181.9z M292.3,159.5c-5.1-0.1-9.3,4-9.4,9.2c0,0.1,0,0.3,0,0.4c0,5.7,4,9.7,9.6,9.7c5.3,0,9.1-4,9.1-9.6  S297.6,159.5,292.3,159.5L292.3,159.5z"/>
<path class="st0" d="M323.3,160v21.2h-3.3V160h-3.8v-3h3.8c-0.1-5.6,3-8.5,9.3-8.5v3c-4.5,0-6.1,1.5-6,5.5h6v3L323.3,160z"/>
<path class="st0" d="M348.9,160v21.2h-3.3V160h-5.2v-3h5.2v-8.5h3.3v8.5h5.4v3H348.9z"/>
<path class="st0" d="M363.7,186.8v-2.6h22.1v2.6H363.7z"/>
<path class="st0" d="M403.7,160v21.2h-3.3V160h-5.2v-3h5.2v-8.5h3.3v8.5h5.4v3H403.7z"/>
<path class="st0" d="M422.6,170.3c0.4,4.9,4.5,8.6,9.4,8.6c3.7,0,7-2.2,8.5-5.5h3.4c-1.8,5-6.5,8.4-11.8,8.5  c-7,0.1-12.7-5.5-12.8-12.5c0-0.1,0-0.2,0-0.3c-0.1-6.9,5.5-12.5,12.3-12.6c0.1,0,0.2,0,0.2,0c7.2,0,12.6,5.2,12.6,13.8H422.6z   M431.8,159.5c-4.6,0-8.5,3.3-9.2,7.8h18.5C440.1,162.5,436.5,159.5,431.8,159.5L431.8,159.5z"/>
<path class="st0" d="M470.1,181.9c-7.4,0-13.2-5.5-13.2-12.8c0.2-7.2,6.1-12.9,13.3-12.7c5.1,0.1,9.7,3.3,11.7,8h-3.7  c-1.7-3.1-4.9-5-8.4-4.9c-5.3,0-9.6,4.2-9.6,9.5c0,0.1,0,0.1,0,0.2c0,5.3,4.3,9.6,9.6,9.7c0,0,0.1,0,0.1,0c3.4,0,5.8-1.3,8.3-4.7  h3.8C479,179.7,475.1,181.9,470.1,181.9z"/>
<path class="st0" d="M513.5,181.3v-13c0-6-3.1-8.8-7.5-8.8c-4.2,0-7.4,2.6-7.4,8.5v13.3h-3.3v-32.7h3.3v11.6  c1.8-2.5,4.7-3.8,7.7-3.7c6.3,0,10.4,3.7,10.4,11.8v13L513.5,181.3z"/>
<path class="st0" d="M528.4,186.8v-2.6h22.1v2.6H528.4z"/>
<path class="st0" d="M567.9,181.9c-4.6,0-7.8-3-7.8-7.7h3.2c-0.2,2.4,1.5,4.5,3.9,4.7c0.2,0,0.4,0,0.6,0c2.2,0,4-1.7,4.1-3.9  c0-0.1,0-0.2,0-0.3c0-2.4-1.2-3.2-4.7-4.6s-3.5-1.4-4.5-2.4c-1.2-1.1-1.9-2.7-1.8-4.3c-0.1-3.7,2.8-6.7,6.4-6.8c0.1,0,0.3,0,0.4,0  c3.9,0,6.8,2.6,6.8,6.5h-3.3c0.2-1.8-1.1-3.4-2.9-3.5c-0.2,0-0.4,0-0.6,0c-1.9,0-3.5,1.5-3.5,3.5c0,0,0,0,0,0c0,1.4,0.9,2.7,2.2,3.2  c0.7,0.4,0.9,0.5,4.6,2c2.6,0.9,4.3,3.4,4.2,6.2c0.2,3.9-2.8,7.3-6.7,7.5C568.4,181.9,568.2,181.9,567.9,181.9z"/>
<path class="st0" d="M600.2,181.9c-7.5,0-13-5.4-13-12.8c-0.1-6.9,5.4-12.5,12.3-12.5c0.1,0,0.3,0,0.4,0c7.3,0,12.6,5.4,12.6,12.7  S607.3,181.9,600.2,181.9z M599.9,159.5c-5.1-0.1-9.3,4-9.4,9.2c0,0.1,0,0.3,0,0.4c0,5.7,4,9.7,9.6,9.7c5.3,0,9.1-4,9.1-9.6  S605.2,159.5,599.9,159.5L599.9,159.5z"/>
<path class="st0" d="M626,181.3v-32.7h3.3v32.7H626z"/>
<path class="st0" d="M661.8,181.3v-3.8c-1.6,3-4,4.3-7.8,4.3c-6.2,0-10.3-3.3-10.3-11.7v-13h3.3v13c0,6.1,2.6,8.7,7.3,8.7  c4.4,0,7.5-2.8,7.5-9.3v-12.4h3.2v24.2H661.8z"/>
<path class="st0" d="M685.7,160v21.2h-3.3V160h-5.2v-3h5.2v-8.5h3.3v8.5h5.4v3H685.7z"/>
<path class="st0" d="M703.3,154.4v-5.6h3.3v5.6H703.3z M703.3,181.3v-24.2h3.3v24.2H703.3z"/>
<path class="st0" d="M733,181.9c-7.5,0-13-5.4-13-12.8c-0.1-6.9,5.4-12.5,12.3-12.5c0.1,0,0.3,0,0.4,0c7.3,0,12.6,5.4,12.6,12.7  S740.1,181.9,733,181.9z M732.7,159.5c-5.1-0.1-9.3,4-9.4,9.2c0,0.1,0,0.3,0,0.4c0,5.7,4,9.7,9.6,9.7c5.3,0,9.1-4,9.1-9.6  S738.1,159.5,732.7,159.5L732.7,159.5z"/>
<path class="st0" d="M777,181.3v-12.7c0-6.6-3-9.1-7.5-9.1s-7.4,2.5-7.4,8.5v13.3h-3.3v-24.2h3.3v3.1c1.9-2.4,4.7-3.8,7.8-3.7  c6.1,0,10.3,3.6,10.3,12.1v12.7L777,181.3z"/>
<path class="st0" d="M800.5,181.9c-4.7,0-7.8-3-7.8-7.7h3.2c-0.2,2.4,1.5,4.5,3.9,4.7c0.2,0,0.4,0,0.7,0c2.2,0,4-1.7,4.1-3.9  c0-0.1,0-0.2,0-0.3c0-2.4-1.2-3.2-4.7-4.6s-3.5-1.4-4.5-2.4c-1.2-1.1-1.9-2.7-1.8-4.3c-0.1-3.7,2.8-6.7,6.4-6.8c0.1,0,0.3,0,0.4,0  c3.9,0,6.8,2.6,6.8,6.5h-3.3c0.2-1.8-1.2-3.4-3-3.5c-0.2,0-0.4,0-0.6,0c-1.9,0-3.5,1.5-3.5,3.5c0,0,0,0,0,0c0,1.4,0.9,2.7,2.2,3.2  c0.7,0.4,0.9,0.5,4.6,2c2.6,0.9,4.3,3.4,4.2,6.2c0.2,3.9-2.8,7.3-6.7,7.5C800.9,181.9,800.7,181.9,800.5,181.9z"/>
<path class="st3" d="M81.4,181.7c-43.2,0-78.3-35.1-78.3-78.3s35.1-78.3,78.3-78.3s78.3,35.1,78.3,78.3c0,0,0,0,0,0  C159.6,146.6,124.6,181.7,81.4,181.7z M81.4,46.3c-31.5,0-57.1,25.6-57.1,57.1s25.6,57.1,57.1,57.1s57.1-25.6,57.1-57.1  C138.4,71.9,112.9,46.4,81.4,46.3z"/>
<path class="st4" d="M56,72.6c0-31.7,25.7-57.3,57.4-57.3s57.3,25.7,57.3,57.4c0,31.7-25.7,57.3-57.4,57.3  C81.7,130,56,104.3,56,72.6C56,72.6,56,72.6,56,72.6z"/>
<path class="st0" d="M113.3,140.6c-37.5,0-67.9-30.4-68-67.9s30.4-68,67.9-68s68,30.4,68,67.9l0,0  C181.3,110.1,150.8,140.5,113.3,140.6z M113.3,25.9c-25.8,0-46.7,20.9-46.7,46.7c0,25.8,20.9,46.7,46.7,46.7s46.7-20.9,46.7-46.7  c0,0,0,0,0,0C160,46.8,139.1,25.9,113.3,25.9z"/>
</svg>