<svg xmlns="http://www.w3.org/2000/svg" version="1.1" xmlns:xlink="http://www.w3.org/1999/xlink" width="1500" height="571" viewBox="0 0 1500 571"><svg xml:space="preserve" width="1500" height="571" data-version="2" data-id="lg_I0uBreLxBkwWJgHYHQ" viewBox="0 0 571 571" x="0" y="0"><rect width="100%" height="100%" fill="transparent"></rect><circle r="298.954" fill="#340065" transform="translate(285.5 285.5)scale(.935)"></circle><circle r="272.531" fill="none" stroke="#b96fff" stroke-width="4" transform="translate(285.498 285.498)scale(.935)"></circle><path fill="#d497bd" d="M306.811 205.491h40.06v4.63q-3.7-1.11-7.04-1.11-4.64 0-7.51 2.04-2.88 2.04-2.88 5.57v130h-4.26l-81.98-127.41.19 112.58q0 3.52 3.43 5.56 3.43 2.04 8.44 2.04 3.89 0 7.41-1.11v4.64h-40.43v-4.64q3.53 1.11 7.05 1.11 4.45 0 7.14-2.04 2.69-2.04 2.69-5.56v-114.99q0-3.52-2.78-5.56-2.78-2.04-7.23-2.04-3.16 0-6.87 1.11v-4.64h29.12l73.82 111.84v-100.89q0-3.53-3.16-5.57-3.15-2.04-7.97-2.04-3.71 0-7.24 1.11z"></path></svg></svg>